<?xml version="1.0" encoding="utf-8"?>
<!-- Generator: Adobe Illustrator 16.0.0, SVG Export Plug-In . SVG Version: 6.00 Build 0)  -->
<!DOCTYPE svg PUBLIC "-//W3C//DTD SVG 1.1//EN" "http://www.w3.org/Graphics/SVG/1.1/DTD/svg11.dtd">
<svg version="1.1" id="Layer_1" xmlns="http://www.w3.org/2000/svg" xmlns:xlink="http://www.w3.org/1999/xlink" x="0px" y="0px"
	 width="792px" height="612px" viewBox="0 0 792 612" enable-background="new 0 0 792 612" xml:space="preserve">
<path fill="none" d="M224.958,285.54c-1.261-0.674-2.383-1.635-3.304-2.776c-0.805,0.381-1.726,0.63-2.841,0.58
	c-4.025-0.168-7.999-0.568-11.984-0.751c0.498,7.492,0.379,14.732-7.45,18.761c-3.963,2.046-8.551,2.578-13.263,2.488
	c-0.025,2.167,1.395,4.078,5.625,5.901c6.42,2.76,13.61,4.299,20.572,4.771c12.928,0.867,25.769,0.232,38.149-3.844
	c0.509-0.172,0.944-0.121,1.416-0.168c-6.879-6.189-14.327-11.904-22.625-16.861C225.896,291.634,224.699,288.54,224.958,285.54z"/>
<g>
	<g>
		<path fill="none" d="M195.428,262.132c-1.261-0.674-2.383-1.635-3.304-2.776c-0.805,0.381-1.726,0.63-2.841,0.58
			c-4.025-0.168-7.999-0.568-11.984-0.751c0.498,7.492,0.379,14.732-7.45,18.761c-3.963,2.046-8.551,2.578-13.263,2.488
			c-0.025,2.167,1.395,4.078,5.625,5.901c6.42,2.76,13.61,4.299,20.572,4.771c12.928,0.867,25.769,0.232,38.149-3.844
			c0.509-0.172,0.944-0.121,1.416-0.168c-6.879-6.189-14.327-11.904-22.625-16.861C196.366,268.226,195.168,265.132,195.428,262.132
			z"/>
		<path fill="none" d="M377.174,249.579c-15.513-2.75-35.471-2.725-48.847,6.773c-2.768,4.506-6.457,8.698-11.019,12.465
			c-7.682,6.343-19.508-1.549-14.209-10.963c2.939-5.232,6.634-9.575,10.856-13.183c3.369-6.84,3.197-14.469-3.184-21.902
			c-8.621-10.068-21.937-18.284-35.508-18.852c-33.037-1.386-53.601,23.611-66.787,50.487c0.127,0.071,0.254,0.123,0.381,0.202
			c48.332,28.896,72.569,77.893,93.172,127.92c3.953-16.195,12.33-30.537,28.164-39.533c7.526-4.271,14.466,3.191,13.458,9.689
			c18.233-4.916,36.203-11.807,52.593-20.848c15.006-8.279,42.242-24.578,35.524-45.77
			C424.814,264.158,397.84,253.236,377.174,249.579z"/>
		<path fill="#9F1D20" d="M447.591,276.718c-8.957-22.071-31.651-35.407-54.396-41.903c0.234-0.607,0.468-1.228,0.51-1.983
			c0.913-17.29-17.458-34.441-2.077-49.362c10.998-10.656,16.655-22.806,21.212-37.263c2.411-7.642-9.557-10.885-11.946-3.293
			c-3.343,10.601-7.073,20.125-14.6,28.524c-4.496,5.009-11.956,9.662-13.727,16.685c-4.155,16.468,9.131,28.044,8.749,43.922
			c-1.086-0.198-2.172-0.412-3.244-0.579c-14.213-2.262-30.121-2.071-44.153,2.404c-0.36-4.536-1.552-9.2-3.668-13.93
			c-7.609-16.994-27.13-28.377-44.473-32.614c-19.254-4.705-40.873,1.501-57.004,12.296c-8.622,5.764-15.729,13.194-21.771,21.48
			c-0.667-0.315-1.386-0.58-2.235-0.661c-23.966-2.146-47.984-1.603-72.013-1.546c-6.777,0.014-7.744,8.875-3.02,11.565
			c0.261,13.98,1.423,27.906,2.246,41.861c0.215,3.623,2.674,5.857,6.193,6.197c1.684,0.163,3.471,0.399,5.29,0.648
			c-0.322,1.37-0.548,2.776-0.54,4.227c0.028,8.191,9.751,12.227,15.863,14.861c19.539,8.402,45.525,7.514,65.437,0.947
			c3.188-1.055,4.366-3.781,4.192-6.41c34.244,34.336,51.472,82.953,69.566,127.76c4.305,10.678,21.817,6.018,17.448-4.814
			c-0.188-0.463-0.381-0.943-0.569-1.406c1.377-1.441,2.274-3.441,2.299-6.002c0.112-13.266,1.914-26.705,8.794-37.203
			c1.985,2.023,4.883,3.186,8.405,2.436c27.717-5.893,55.658-16.314,79.788-31.215C436.508,328.555,459.013,304.871,447.591,276.718
			z M199.64,232.505c-2.959,5.081-5.667,10.319-8.13,15.585c-0.667-0.279-1.379-0.506-2.227-0.541
			c-6.235-0.266-12.339-1.144-18.585-0.777c-3.259,0.186-6.34,2.673-6.195,6.196c0.26,6.317,2.169,11.888-2.548,13.939
			c-0.241-5.583-8.302-9.2-11.316-3.132c-0.592,1.188-1.241,2.376-1.901,3.569c-1.576-0.167-3.151-0.352-4.721-0.544
			c-0.764-11.849-1.583-23.688-1.831-35.558C161.354,231.141,180.514,231.085,199.64,232.505z M220.933,287.262
			c-12.38,4.076-25.222,4.711-38.149,3.844c-6.962-0.473-14.152-2.012-20.572-4.771c-4.23-1.823-5.651-3.734-5.625-5.901
			c4.712,0.09,9.299-0.442,13.263-2.488c7.829-4.029,7.947-11.27,7.45-18.761c3.986,0.184,7.959,0.583,11.984,0.751
			c1.116,0.051,2.037-0.198,2.841-0.58c0.92,1.142,2.042,2.103,3.304,2.776c-0.259,3,0.938,6.094,4.296,8.101
			c8.299,4.957,15.746,10.672,22.625,16.861C221.877,287.141,221.442,287.09,220.933,287.262z M396.244,331.834
			c-16.39,9.041-34.359,15.932-52.593,20.848c1.009-6.498-5.931-13.961-13.458-9.689c-15.834,8.996-24.211,23.338-28.164,39.533
			c-20.603-50.027-44.84-99.023-93.172-127.92c-0.126-0.079-0.254-0.13-0.381-0.202c13.186-26.876,33.75-51.873,66.787-50.487
			c13.571,0.568,26.887,8.784,35.508,18.852c6.38,7.433,6.552,15.062,3.184,21.902c-4.223,3.608-7.917,7.951-10.856,13.183
			c-5.299,9.414,6.527,17.306,14.209,10.963c4.562-3.767,8.251-7.959,11.019-12.465c13.376-9.498,33.334-9.523,48.847-6.773
			c20.666,3.658,47.641,14.579,54.595,36.486C438.486,307.256,411.25,323.555,396.244,331.834z"/>
	</g>
	<path fill="#9F1D20" d="M415.118,236.44c17.249-17.29,44.237-16.281,61.946-33.295c5.77-5.542-2.998-14.296-8.758-8.764
		c-17.457,16.772-44.415,15.721-61.947,33.301C400.716,233.345,409.475,242.104,415.118,236.44z"/>
	<path fill="#9F1D20" d="M501.347,236.002c-16.67,9.307-46.171,4.425-63.366-1.395c-7.587-2.574-10.814,9.394-3.291,11.941
		c20.675,7,53.035,11.244,72.917,0.151C514.576,242.808,508.336,232.106,501.347,236.002z"/>
</g>
</svg>
